HIERARCHY
ROOT joint_Root
{
	OFFSET 0.0 0.0 0.0
	CHANNELS 6 Xposition Yposition Zposition Zrotation Xrotation Yrotation 
	JOINT Hips
	{
		OFFSET 4.5925 91.4895 -427.239
		CHANNELS 6 Xposition Yposition Zposition Zrotation Xrotation Yrotation 
		JOINT Spine
		{
			OFFSET 15.7357 0.0 0.0
			CHANNELS 6 Xposition Yposition Zposition Zrotation Xrotation Yrotation 
			JOINT Chest
			{
				OFFSET 8.98455 -0.406207 0.0
				CHANNELS 6 Xposition Yposition Zposition Zrotation Xrotation Yrotation 
				JOINT Neck
				{
					OFFSET 16.3773 0.0 0.0
					CHANNELS 6 Xposition Yposition Zposition Zrotation Xrotation Yrotation 
					JOINT Head
					{
						OFFSET 6.45672 0.0 0.0
						CHANNELS 6 Xposition Yposition Zposition Zrotation Xrotation Yrotation 
						End Site
						{
							OFFSET 0.0 0.0 0.0
						}
					}
				}
				JOINT Shoulder_L
				{
					OFFSET 12.9942 -0.242716 4.98039
					CHANNELS 6 Xposition Yposition Zposition Zrotation Xrotation Yrotation 
					JOINT UpperArm_L
					{
						OFFSET 5.34809 0.0 0.0
						CHANNELS 6 Xposition Yposition Zposition Zrotation Xrotation Yrotation 
						JOINT LowerArm_L
						{
							OFFSET 24.3286 1.87007e-05 0.0
							CHANNELS 6 Xposition Yposition Zposition Zrotation Xrotation Yrotation 
							JOINT Hand_L
							{
								OFFSET 22.2916 0.0 0.0
								CHANNELS 6 Xposition Yposition Zposition Zrotation Xrotation Yrotation 
								End Site
								{
									OFFSET 0.0 0.0 0.0
								}
							}
						}
					}
				}
				JOINT Shoulder_R
				{
					OFFSET 12.9945 -0.242716 -4.98039
					CHANNELS 6 Xposition Yposition Zposition Zrotation Xrotation Yrotation 
					JOINT UpperArm_R
					{
						OFFSET -5.34813 0.0 0.0
						CHANNELS 6 Xposition Yposition Zposition Zrotation Xrotation Yrotation 
						JOINT LowerArm_R
						{
							OFFSET -24.3289 0.000322201 0.0
							CHANNELS 6 Xposition Yposition Zposition Zrotation Xrotation Yrotation 
							JOINT Hand_R
							{
								OFFSET -22.2915 -0.000108084 0.0
								CHANNELS 6 Xposition Yposition Zposition Zrotation Xrotation Yrotation 
								End Site
								{
									OFFSET 0.0 0.0 0.0
								}
							}
						}
					}
				}
			}
		}
		JOINT UpperLeg_L
		{
			OFFSET -2.19248 -6.46944 0.0
			CHANNELS 6 Xposition Yposition Zposition Zrotation Xrotation Yrotation 
			JOINT LowerLeg_L
			{
				OFFSET 39.0811 0.0 -1.23785e-05
				CHANNELS 6 Xposition Yposition Zposition Zrotation Xrotation Yrotation 
				JOINT Foot_L
				{
					OFFSET 40.9854 0.0 -1.26872e-05
					CHANNELS 6 Xposition Yposition Zposition Zrotation Xrotation Yrotation 
					JOINT Toes_L
					{
						OFFSET 11.7543 0.0 0.0
						CHANNELS 6 Xposition Yposition Zposition Zrotation Xrotation Yrotation 
						End Site
						{
							OFFSET 0.0 0.0 0.0
						}
					}
				}
			}
		}
		JOINT UpperLeg_R
		{
			OFFSET -2.19251 6.46944 0.0
			CHANNELS 6 Xposition Yposition Zposition Zrotation Xrotation Yrotation 
			JOINT LowerLeg_R
			{
				OFFSET -39.0811 -0.00228153 -0.0401928
				CHANNELS 6 Xposition Yposition Zposition Zrotation Xrotation Yrotation 
				JOINT Foot_R
				{
					OFFSET -40.9854 0.0 0.0
					CHANNELS 6 Xposition Yposition Zposition Zrotation Xrotation Yrotation 
					JOINT Toes_R
					{
						OFFSET -11.7543 0.0 0.0
						CHANNELS 6 Xposition Yposition Zposition Zrotation Xrotation Yrotation 
						End Site
						{
							OFFSET 0.0 0.0 0.0
						}
					}
				}
			}
		}
	}
}
MOTION
Frames:	7
Frame Time:	0.0333333
0.000000 0.000000 0.000000 0.000000 0.000000 -0.000000 4.374400 91.341800 1.191490 86.852300 -17.775900 1.247180 15.735700 0.000005 -0.000001 74.348100 85.755300 -70.829600 8.984550 -0.406207 -0.000000 0.496377 -2.512610 7.043790 16.377300 -0.000001 -0.000001 3.635570 0.730830 -2.568460 6.456720 -0.000001 -0.000000 -3.406190 1.279480 4.029430 12.994200 -0.242716 4.980390 -83.357300 -13.131100 -62.858800 5.348090 -0.000007 -0.000001 -28.198500 -67.029500 -65.063500 24.328600 0.000019 0.000005 8.131720 6.892350 -49.974500 22.291600 -0.000001 0.000005 25.618500 5.384950 -2.458990 12.994500 -0.242716 -4.980390 87.341100 9.013630 -73.489200 -5.348130 -0.000001 -0.000004 -55.246800 19.624700 0.194434 -24.328900 0.000322 -0.000009 -1.746360 -2.771700 -32.216100 -22.291500 -0.000108 -0.000004 23.386000 5.509870 -6.934800 -2.192480 -6.469440 -0.000000 -177.830000 -19.807200 -4.739890 39.081100 -0.000007 -0.000012 -0.146062 0.280793 27.482700 40.985400 -0.000006 -0.000013 1.414920 -3.229920 -71.322300 11.754300 -0.000000 0.000003 -0.000168 -0.001600 -16.638200 -2.192510 6.469440 -0.000001 176.169000 15.833700 172.934000 -39.081100 -0.002282 -0.040193 -0.024530 0.059005 25.260500 -40.985400 0.000008 0.000006 4.492510 23.583400 -67.666100 -11.754300 -0.000006 -0.000006 -0.001681 -0.024643 -17.575200
0.000000 0.000000 0.000000 0.000000 0.000000 -0.000000 4.229970 91.376800 1.083750 87.015700 -16.619100 1.135440 15.735700 0.000005 -0.000001 74.891100 85.777700 -71.698600 8.984550 -0.406207 -0.000000 0.462356 -2.403700 6.390850 16.377300 -0.000001 -0.000001 3.222810 0.450003 -2.536570 6.456720 -0.000001 -0.000000 -3.329550 1.130300 3.821430 12.994200 -0.242716 4.980390 -84.015300 -11.697800 -62.658000 5.348090 -0.000007 -0.000001 -31.150700 -64.352800 -65.055400 24.328600 0.000019 0.000005 8.718400 5.645510 -57.319300 22.291600 -0.000001 0.000005 27.816700 5.367650 -1.916670 12.994500 -0.242716 -4.980390 87.349300 8.957150 -73.439900 -5.348130 -0.000001 -0.000004 -56.406000 20.053900 -0.074942 -24.328900 0.000322 -0.000009 -1.761020 -2.977140 -30.608500 -22.291500 -0.000108 -0.000004 22.808100 5.494450 -6.310580 -2.192480 -6.469440 -0.000000 -177.887000 -19.360300 -5.035320 39.081100 -0.000007 -0.000012 -0.144508 0.278823 27.396900 40.985400 -0.000006 -0.000013 1.530980 -2.481330 -71.108500 11.754300 -0.000000 0.000003 -0.000169 -0.001603 -16.638300 -2.192510 6.469440 -0.000001 176.248000 15.958100 172.875000 -39.081100 -0.002282 -0.040193 -0.022188 0.054082 25.244300 -40.985400 0.000008 0.000006 4.521330 22.514800 -67.717300 -11.754300 -0.000006 -0.000006 -0.001415 -0.021138 -17.432700
0.000000 0.000000 0.000000 0.000000 0.000000 -0.000000 4.056620 91.417500 0.940380 87.153800 -15.275300 1.086050 15.735700 0.000005 -0.000001 75.873800 85.736700 -72.998900 8.984550 -0.406207 -0.000000 0.566602 -2.260760 5.757340 16.377300 -0.000001 -0.000001 2.570160 0.146120 -2.285440 6.456720 -0.000001 -0.000000 -3.312770 0.912370 3.587460 12.994200 -0.242716 4.980390 -84.704400 -10.347400 -62.704700 5.348090 -0.000007 -0.000001 -33.046900 -60.768100 -62.459100 24.328600 0.000019 0.000005 9.986050 4.374420 -66.574700 22.291600 -0.000001 0.000005 28.859800 5.339250 -1.058970 12.994500 -0.242716 -4.980390 87.394700 8.863800 -73.548100 -5.348130 -0.000001 -0.000004 -57.701100 20.613900 -0.259800 -24.328900 0.000322 -0.000009 -1.623660 -2.946030 -28.861000 -22.291500 -0.000108 -0.000004 22.130500 5.475480 -5.575310 -2.192480 -6.469440 -0.000000 -177.898000 -18.770700 -5.293580 39.081100 -0.000007 -0.000012 -0.137788 0.266793 27.314800 40.985400 -0.000006 -0.000013 1.630460 -1.751750 -70.869700 11.754300 -0.000000 0.000003 -0.000180 -0.001693 -16.641600 -2.192510 6.469440 -0.000001 176.350000 16.425900 172.915000 -39.081100 -0.002282 -0.040193 -0.012374 0.033307 25.216700 -40.985400 0.000008 0.000006 4.755730 21.561600 -67.836700 -11.754300 -0.000006 -0.000006 -0.001349 -0.020246 -17.396400
0.000000 0.000000 0.000000 0.000000 0.000000 -0.000000 3.851980 91.458400 0.776225 87.276600 -13.916100 1.102410 15.735700 0.000005 -0.000001 78.060300 85.670900 -75.477600 8.984550 -0.406207 -0.000000 0.754585 -1.948490 5.174730 16.377300 -0.000001 -0.000001 1.919230 -0.149527 -1.988600 6.456720 -0.000001 -0.000000 -3.392610 0.475747 3.356150 12.994200 -0.242716 4.980390 -85.541200 -9.004250 -63.516400 5.348090 -0.000007 -0.000001 -32.892100 -56.287200 -56.514200 24.328600 0.000019 0.000005 11.180900 2.676320 -76.705400 22.291600 -0.000001 0.000005 28.675200 5.319440 -0.479325 12.994500 -0.242716 -4.980390 87.430500 8.812030 -73.672700 -5.348130 -0.000001 -0.000004 -58.967300 21.340700 -0.215411 -24.328900 0.000322 -0.000009 -1.556530 -3.004520 -27.387300 -22.291500 -0.000108 -0.000004 21.539400 5.463480 -5.127690 -2.192480 -6.469440 -0.000000 -177.858000 -18.106700 -5.502050 39.081100 -0.000007 -0.000012 -0.131052 0.254430 27.252200 40.985400 -0.000006 -0.000013 1.696820 -1.055800 -70.622500 11.754300 -0.000000 0.000003 -0.000204 -0.001886 -16.648600 -2.192510 6.469440 -0.000001 176.424000 17.151500 173.046000 -39.081100 -0.002282 -0.040193 -0.007720 0.023498 25.149200 -40.985400 0.000008 0.000006 4.881270 20.890600 -67.880300 -11.754300 -0.000006 -0.000006 -0.001466 -0.021821 -17.460400
0.000000 0.000000 0.000000 0.000000 0.000000 -0.000000 3.626460 91.507800 0.624522 87.341100 -12.506800 1.087800 15.735700 0.000005 -0.000001 80.687200 85.601600 -78.363500 8.984550 -0.406207 -0.000000 0.951224 -1.561070 4.656940 16.377300 -0.000001 -0.000001 1.330380 -0.514057 -1.643910 6.456720 -0.000001 -0.000000 -3.552630 -0.028420 3.120370 12.994200 -0.242716 4.980390 -86.463700 -7.537750 -64.776400 5.348090 -0.000007 -0.000001 -32.095200 -50.352600 -49.191800 24.328600 0.000019 0.000005 12.310500 0.877515 -85.982800 22.291600 -0.000001 0.000005 27.776300 5.317400 -0.422465 12.994500 -0.242716 -4.980390 87.444300 8.830470 -73.787700 -5.348130 -0.000001 -0.000004 -60.203300 22.139200 -0.071570 -24.328900 0.000322 -0.000009 -1.496580 -3.052370 -26.118400 -22.291500 -0.000108 -0.000004 20.918200 5.454890 -4.814870 -2.192480 -6.469440 -0.000000 -177.729000 -17.528100 -5.717820 39.081100 -0.000007 -0.000012 -0.128503 0.250326 27.173500 40.985400 -0.000006 -0.000013 1.768480 -0.232874 -70.365600 11.754300 -0.000000 0.000003 -0.000184 -0.001729 -16.642900 -2.192510 6.469440 -0.000001 176.535000 18.193300 173.233000 -39.081100 -0.002282 -0.040193 -0.007387 0.022984 24.961700 -40.985400 0.000008 0.000006 4.936930 20.472600 -67.842300 -11.754300 -0.000006 -0.000006 -0.001344 -0.020179 -17.393700
0.000000 0.000000 0.000000 0.000000 0.000000 -0.000000 3.427410 91.571300 0.472406 87.454500 -11.146000 0.933109 15.735700 0.000005 -0.000001 82.880800 85.572100 -80.807100 8.984550 -0.406207 -0.000000 1.047170 -1.218590 4.155390 16.377300 -0.000001 -0.000001 0.749517 -0.847669 -1.313020 6.456720 -0.000001 -0.000000 -3.747820 -0.550406 2.843600 12.994200 -0.242716 4.980390 -87.567000 -5.480320 -66.017800 5.348090 -0.000007 -0.000001 -30.984300 -42.657800 -41.908700 24.328600 0.000019 0.000005 13.565000 -0.678745 -92.806500 22.291600 -0.000001 0.000005 26.214800 5.322220 -0.559791 12.994500 -0.242716 -4.980390 87.445400 8.862120 -73.848900 -5.348130 -0.000001 -0.000004 -61.368600 23.101400 -0.009088 -24.328900 0.000322 -0.000009 -1.394340 -2.973770 -25.118100 -22.291500 -0.000108 -0.000004 20.548400 5.446850 -4.527310 -2.192480 -6.469440 -0.000000 -177.735000 -16.815000 -6.041540 39.081100 -0.000007 -0.000012 -0.126955 0.249543 26.964800 40.985400 -0.000006 -0.000013 1.810830 0.421716 -70.036800 11.754300 -0.000000 0.000003 -0.000209 -0.001925 -16.650100 -2.192510 6.469440 -0.000001 176.611000 19.319200 173.291000 -39.081100 -0.002282 -0.040193 -0.008516 0.025726 24.692200 -40.985400 0.000008 0.000006 4.948970 20.207700 -67.743200 -11.754300 -0.000006 -0.000006 -0.001340 -0.020127 -17.391600
0.000000 0.000000 0.000000 0.000000 0.000000 -0.000000 3.235510 91.630800 0.343140 87.584700 -9.800390 0.733762 15.735700 0.000005 -0.000001 84.710400 85.592400 -82.907900 8.984550 -0.406207 -0.000000 1.028790 -0.918259 3.610440 16.377300 -0.000001 -0.000001 0.367157 -1.345590 -0.864052 6.456720 -0.000001 -0.000000 -3.843680 -0.988521 2.503790 12.994200 -0.242716 4.980390 -88.519500 -3.506160 -67.094100 5.348090 -0.000007 -0.000001 -31.299400 -33.090200 -35.648000 24.328600 0.000019 0.000005 15.308600 -1.733750 -96.306500 22.291600 -0.000001 0.000005 24.475800 5.324340 -0.621435 12.994500 -0.242716 -4.980390 87.409300 8.959020 -73.798800 -5.348130 -0.000001 -0.000004 -62.553800 23.983500 0.160902 -24.328900 0.000322 -0.000009 -1.327140 -2.909890 -24.512300 -22.291500 -0.000108 -0.000004 20.156200 5.440610 -4.307000 -2.192480 -6.469440 -0.000000 -177.808000 -16.096000 -6.385350 39.081100 -0.000007 -0.000012 -0.114885 0.228135 26.729100 40.985400 -0.000006 -0.000013 1.870570 1.053840 -69.720100 11.754300 -0.000000 0.000003 -0.000202 -0.001867 -16.648000 -2.192510 6.469440 -0.000001 176.660000 20.540900 173.299000 -39.081100 -0.002282 -0.040193 -0.010316 0.029986 24.442600 -40.985400 0.000008 0.000006 4.994570 20.044700 -67.677300 -11.754300 -0.000006 -0.000006 -0.001329 -0.019970 -17.385200
